<svg width="38" height="38" viewBox="0 0 38 38" fill="none" xmlns="http://www.w3.org/2000/svg">
<path d="M7.6 29.5556H17.1V25.3333H7.6V29.5556ZM26.6 29.5556H30.4V25.3333H26.6V29.5556ZM7.6 21.1111H17.1V16.8889H7.6V21.1111ZM26.6 21.1111H30.4V8.44445H26.6V21.1111ZM7.6 12.6667H17.1V8.44445H7.6V12.6667ZM3.8 38C2.755 38 1.8601 37.5862 1.1153 36.7587C0.370503 35.9311 -0.00126344 34.9375 3.22581e-06 33.7778V4.22222C3.22581e-06 3.06111 0.372403 2.06678 1.1172 1.23923C1.862 0.41167 2.75627 -0.00140382 3.8 3.58423e-06H34.2C35.245 3.58423e-06 36.1399 0.413781 36.8847 1.24134C37.6295 2.06889 38.0013 3.06252 38 4.22222V33.7778C38 34.9389 37.6276 35.9332 36.8828 36.7608C36.138 37.5883 35.2437 38.0014 34.2 38H3.8Z" fill="#CCCCCC"/>
</svg>
