<svg width="38" height="38" viewBox="0 0 38 38" fill="none" xmlns="http://www.w3.org/2000/svg">
<path d="M2.11111 21.1111H14.7778C15.9389 21.1111 16.8889 20.1611 16.8889 19V2.11111C16.8889 0.95 15.9389 0 14.7778 0H2.11111C0.95 0 0 0.95 0 2.11111V19C0 20.1611 0.95 21.1111 2.11111 21.1111ZM2.11111 38H14.7778C15.9389 38 16.8889 37.05 16.8889 35.8889V27.4444C16.8889 26.2833 15.9389 25.3333 14.7778 25.3333H2.11111C0.95 25.3333 0 26.2833 0 27.4444V35.8889C0 37.05 0.95 38 2.11111 38ZM23.2222 38H35.8889C37.05 38 38 37.05 38 35.8889V19C38 17.8389 37.05 16.8889 35.8889 16.8889H23.2222C22.0611 16.8889 21.1111 17.8389 21.1111 19V35.8889C21.1111 37.05 22.0611 38 23.2222 38ZM21.1111 2.11111V10.5556C21.1111 11.7167 22.0611 12.6667 23.2222 12.6667H35.8889C37.05 12.6667 38 11.7167 38 10.5556V2.11111C38 0.95 37.05 0 35.8889 0H23.2222C22.0611 0 21.1111 0.95 21.1111 2.11111Z" fill="#CCCCCC"/>
</svg>
