<svg width="33" height="26" viewBox="0 0 33 26" fill="none" xmlns="http://www.w3.org/2000/svg">
<path d="M7.08395 20.2222H15.0212V17.3333H7.08395V20.2222ZM22.9585 20.2222H26.1334V17.3333H22.9585V20.2222ZM7.08395 14.4444H15.0212V11.5556H7.08395V14.4444ZM22.9585 14.4444H26.1334V5.77778H22.9585V14.4444ZM7.08395 8.66667H15.0212V5.77778H7.08395V8.66667ZM3.90904 26C3.03594 26 2.28825 25.7169 1.66597 25.1507C1.04369 24.5844 0.733075 23.9046 0.734134 23.1111V2.88889C0.734134 2.09445 1.04527 1.41411 1.66756 0.847891C2.28984 0.281669 3.037 -0.00096051 3.90904 2.45237e-06H29.3083C30.1814 2.45237e-06 30.9291 0.283114 31.5514 0.849336C32.1737 1.41556 32.4843 2.09541 32.4832 2.88889V23.1111C32.4832 23.9056 32.1721 24.5859 31.5498 25.1521C30.9275 25.7183 30.1804 26.001 29.3083 26H3.90904ZM3.90904 23.1111H29.3083V2.88889H3.90904V23.1111Z" fill="#575353"/>
</svg>
