<svg width="38" height="38" viewBox="0 0 38 38" fill="none" xmlns="http://www.w3.org/2000/svg">
<path d="M35.3598 38L24.5161 25.4785C23.5103 26.4222 22.3945 27.1299 21.1687 27.6017C19.9429 28.0735 18.67 28.3095 17.3499 28.3095C16.0298 28.3095 14.7725 28.0823 13.5782 27.6279C12.3838 27.1734 11.2837 26.5296 10.2779 25.6963L13.0124 22.5387C13.641 22.9742 14.3168 23.319 15.0397 23.5731C15.7626 23.8271 16.5327 23.9542 17.3499 23.9542C19.7072 23.9542 21.7106 23.0018 23.3601 21.0971C25.0096 19.1924 25.835 16.8782 25.8362 14.1547C25.8362 11.4327 25.0108 9.11855 23.3601 7.21238C21.7093 5.30621 19.7059 4.35385 17.3499 4.3553C15.1811 4.3553 13.3028 5.1995 11.7149 6.88791C10.127 8.57631 9.20801 10.6719 8.95782 13.1748L11.3151 10.4527L13.9553 13.5014L6.97767 21.5587L0 13.5014L2.6402 10.4527L5.1861 13.2837C5.37469 9.54537 6.63193 6.39721 8.95782 3.8392C11.2837 1.28118 14.0811 0.00145177 17.3499 0C20.7758 0 23.675 1.37047 26.0474 4.1114C28.4198 6.85234 29.6067 10.2001 29.6079 14.1547C29.6079 15.6791 29.4036 17.1671 28.995 18.6189C28.5864 20.0707 27.9735 21.341 27.1563 22.4298L38 34.9513L35.3598 38Z" fill="#CCCCCC"/>
</svg>
