<svg width="28" height="27" viewBox="0 0 28 27" fill="none" xmlns="http://www.w3.org/2000/svg">
<path d="M25.3887 27L15.7604 17.55C14.9962 18.15 14.1174 18.625 13.124 18.975C12.1307 19.325 11.0736 19.5 9.95282 19.5C7.17641 19.5 4.8269 18.556 2.90429 16.668C0.98169 14.78 0.0198787 12.474 0.0188599 9.75C0.0188599 7.025 0.980671 4.719 2.90429 2.832C4.82792 0.945 7.17743 0.001 9.95282 0C12.7292 0 15.0787 0.944 17.0014 2.832C18.924 4.72 19.8858 7.026 19.8868 9.75C19.8868 10.85 19.7085 11.8875 19.3519 12.8625C18.9953 13.8375 18.5113 14.7 17.9 15.45L27.5283 24.9L25.3887 27ZM9.95282 16.5C11.8632 16.5 13.4873 15.8435 14.825 14.5305C16.1628 13.2175 16.8312 11.624 16.8302 9.75C16.8302 7.875 16.1613 6.281 14.8235 4.968C13.4857 3.655 11.8622 2.999 9.95282 3C8.04244 3 6.41837 3.6565 5.0806 4.9695C3.74282 6.2825 3.07444 7.876 3.07546 9.75C3.07546 11.625 3.74435 13.219 5.08212 14.532C6.4199 15.845 8.04346 16.501 9.95282 16.5Z" fill="#575353"/>
</svg>
